<svg width="184" height="44" viewBox="0 0 184 44" fill="none" xmlns="http://www.w3.org/2000/svg">
<path d="M35.4588 23.0682L39.7076 19.8363L36.8397 3.50305L31.6265 8.66548L31.8859 10.1513L36.0251 6.05535L38.3485 19.3121L34.6989 22.0921L34.0413 22.591L34.2569 23.3864L36.2479 30.7757L24.1994 36.8275L23.0486 37.4059L23.6733 38.523L26.048 42.7672H16.8636L14.8324 40.4932H13.1702L16.3047 43.9999H28.1596L24.762 37.9265L37.7129 31.4228L35.4588 23.0682Z" fill="white"/>
<path d="M30.9761 27.9198L18.0289 34.4198L21.4265 40.4933H9.56793L0 29.7924L30.103 0L32.9708 16.3332L28.7221 19.5652L22.0293 24.6589L29.1349 21.0835L30.9761 27.9198Z" fill="#FFBE00"/>
<path d="M67.3874 20.6182L66.0203 25.5934H71.0722L69.9134 29.7406H64.8577L62.1273 39.632H56L62.4379 16.4011H73.6057L72.4431 20.6182H67.3874Z" fill="#FFC042"/>
<path d="M86.8147 16.4011L84.4024 39.632H78.4947L78.9378 36.0147H75.1811L73.5678 39.632H68.4971L78.9113 16.4011H86.8147ZM79.3733 32.3643L80.3276 24.2318L76.7754 32.3643H79.3733Z" fill="#FFC042"/>
<path d="M87.4661 37.0561C87.4705 36.7884 87.5048 36.5219 87.5683 36.2613L88.7953 31.8123H94.9075L93.8698 35.6467C93.833 35.8003 93.8102 35.9567 93.8017 36.1141C93.8017 36.5115 94.0743 36.7102 94.8242 36.7102C95.68 36.7102 96.0549 36.379 96.2594 35.6467L97.4902 31.2309C97.527 31.0898 97.5499 30.9457 97.5584 30.8004C97.5584 30.3036 97.2516 30.0055 96.6684 30.0055H93.5972C91.2417 30.0055 90.045 29.0414 90.045 27.713C90.0455 27.4776 90.0799 27.2435 90.1472 27.0175L92.0407 20.081C92.961 16.7691 97.0282 16 100.44 16C103.788 16 106.965 16.6329 106.965 18.9218C106.951 19.2021 106.904 19.4799 106.825 19.7498L105.496 24.5667H99.3837L100.52 20.3827C100.557 20.2416 100.579 20.0975 100.588 19.9522C100.588 19.5216 100.281 19.3229 99.5314 19.3229C98.6755 19.3229 98.2665 19.6541 98.062 20.3827L96.8994 24.6992C96.8626 24.8402 96.8398 24.9844 96.8313 25.1297C96.8238 25.2421 96.8423 25.3548 96.8854 25.4593C96.9286 25.5639 96.9953 25.6577 97.0806 25.734C97.166 25.8102 97.2678 25.8669 97.3787 25.8999C97.4895 25.9328 97.6066 25.9413 97.7212 25.9246H100.861C103.22 25.9246 104.413 26.8887 104.413 28.2171C104.412 28.4524 104.378 28.6865 104.311 28.9126L102.364 35.9043C101.444 39.2309 97.6076 40 93.8698 40C90.81 40 87.4661 39.3634 87.4661 37.0561Z" fill="#FFC042"/>
<path d="M123.151 20.6182H118.864L113.589 39.632H107.477L112.733 20.6182H108.431L109.593 16.4011H124.31L123.151 20.6182Z" fill="#FFC042"/>
<path d="M131.584 20.6182L130.225 25.5934H135.28L134.118 29.7406H129.055L126.324 39.632H120.212L126.631 16.4011H137.799L136.636 20.6182H131.584Z" fill="#4C33CC"/>
<path d="M146.164 20.6182L144.797 25.5934H149.853L148.69 29.7406H143.638L142.067 35.4149H147.119L145.96 39.632H134.792L141.23 16.4011H152.379L151.22 20.6182H146.164Z" fill="#4C33CC"/>
<path d="M161.085 20.6182L159.722 25.5934H164.773L163.615 29.7406H158.559L156.987 35.4149H162.035L160.899 39.632H149.716L156.135 16.4011H167.303L166.14 20.6182H161.085Z" fill="#4C33CC"/>
<path d="M182.838 20.6182H178.536L173.279 39.632H167.163L172.423 20.6182H168.121L169.284 16.4011H184L182.838 20.6182Z" fill="#4C33CC"/>
</svg>
